<?xml version="1.0" standalone="no"?>
<!DOCTYPE svg PUBLIC "-//W3C//DTD SVG 20010904//EN"
 "http://www.w3.org/TR/2001/REC-SVG-20010904/DTD/svg10.dtd">
<svg version="1.0" xmlns="http://www.w3.org/2000/svg"
 width="600.000000pt" height="600.000000pt" viewBox="0 0 600.000000 600.000000"
 preserveAspectRatio="xMidYMid meet">
<metadata>
Created by potrace 1.11, written by Peter Selinger 2001-2013
</metadata>
<g transform="translate(0.000000,600.000000) scale(0.100000,-0.100000)"
fill="#000000" stroke="none">
<path d="M2617 5604 c-1 -1 -37 -5 -80 -8 -190 -15 -332 -43 -438 -86 -71 -29
-148 -81 -169 -114 -12 -20 -7 -20 80 0 14 3 39 7 55 10 17 3 36 7 43 9 70 24
457 24 582 0 20 -4 90 -12 165 -21 33 -3 69 -8 80 -10 11 -2 45 -7 75 -10 30
-3 66 -7 80 -9 14 -3 50 -7 80 -11 30 -3 65 -7 77 -9 12 -2 61 -7 110 -10 48
-4 96 -9 106 -11 46 -8 235 -17 347 -16 160 1 235 7 360 28 19 3 46 8 60 10
53 9 126 27 143 36 43 22 2 48 -101 63 -24 3 -80 13 -125 21 -45 8 -104 19
-132 24 -58 10 -100 18 -135 25 -131 27 -306 48 -495 60 -49 3 -115 7 -145 10
-147 12 -615 26 -623 19z"/>
<path d="M4693 5481 c-161 -124 -281 -196 -443 -267 -81 -36 -194 -100 -211
-120 -18 -22 3 -38 48 -36 173 8 395 95 526 207 77 66 192 236 185 275 -3 16
-18 8 -105 -59z"/>
<path d="M4703 5266 c-176 -174 -357 -287 -572 -356 -69 -22 -138 -43 -155
-46 -17 -3 -47 -9 -66 -14 -44 -11 -146 -27 -225 -35 -70 -7 -314 -7 -365 -1
-19 2 -66 7 -105 11 -81 8 -119 12 -195 25 -30 5 -70 12 -87 15 -18 3 -45 7
-60 9 -16 3 -68 12 -118 20 -49 8 -117 18 -150 21 -33 4 -73 8 -90 10 -110 13
-177 17 -305 16 -80 0 -161 -2 -180 -5 -19 -3 -55 -8 -80 -11 -119 -15 -242
-54 -338 -107 -79 -44 -172 -116 -172 -134 0 -18 -1 -18 110 10 52 13 124 28
160 32 121 16 481 10 641 -11 19 -2 90 -11 159 -20 69 -8 134 -17 145 -19 11
-2 43 -7 70 -10 28 -4 61 -9 75 -11 41 -6 252 -34 295 -39 268 -30 580 -29
745 3 25 5 46 8 47 7 2 -2 -56 -69 -141 -166 -157 -176 -388 -413 -661 -675
-198 -190 -480 -474 -612 -615 -405 -433 -632 -750 -824 -1150 -100 -207 -221
-534 -254 -688 -3 -12 -7 -32 -10 -45 -11 -43 -35 -170 -40 -206 -13 -98 -24
-241 -20 -241 2 0 28 30 58 67 44 54 60 85 81 153 95 305 252 641 433 925 188
294 362 527 603 809 52 61 106 124 120 140 14 16 32 37 40 46 8 9 42 47 75 85
33 39 64 75 70 81 5 6 33 37 60 69 28 31 58 67 68 79 10 11 37 43 60 70 23 27
47 54 52 60 6 6 35 40 65 76 30 36 57 67 61 70 4 4 183 206 259 294 14 16 36
41 50 56 83 90 188 206 203 224 188 216 707 732 707 703 0 -22 -384 -545 -615
-837 -123 -155 -369 -457 -384 -470 -3 -3 -21 -23 -40 -45 -18 -22 -70 -78
-115 -125 -270 -281 -620 -720 -705 -884 -30 -59 -32 -76 -6 -76 12 0 113 83
195 160 9 8 34 31 56 50 404 365 717 676 974 970 12 14 39 45 59 70 20 25 42
52 50 60 30 31 200 249 266 340 143 198 268 405 385 639 70 138 94 190 169
363 24 53 65 135 92 182 84 147 65 153 -68 22z"/>
<path d="M2205 5323 c-141 -23 -302 -85 -412 -156 -24 -15 -45 -27 -48 -27
-19 0 -172 -152 -197 -196 -24 -43 -9 -63 28 -37 72 50 182 88 289 99 33 4 63
8 67 10 42 25 786 24 988 -1 59 -7 380 -7 475 0 170 13 203 52 80 93 -131 43
-486 136 -555 146 -19 3 -42 7 -50 10 -12 5 -167 31 -355 61 -78 13 -231 12
-310 -2z"/>
<path d="M4560 4470 c0 -16 -73 -130 -192 -301 -125 -179 -228 -307 -423 -524
-40 -44 -96 -107 -126 -140 -51 -57 -91 -102 -134 -149 -11 -12 -56 -62 -100
-111 -44 -49 -91 -101 -105 -116 -149 -160 -245 -263 -286 -308 -27 -30 -56
-62 -64 -71 -8 -9 -53 -58 -100 -109 -47 -52 -96 -106 -110 -121 -14 -15 -54
-60 -90 -101 -77 -87 -153 -172 -160 -179 -3 -3 -51 -59 -106 -125 -212 -254
-375 -473 -538 -722 l-83 -129 -59 -16 c-33 -9 -67 -20 -77 -24 -17 -6 -17 -5
1 27 70 127 191 448 189 502 -3 92 -221 -229 -399 -588 -38 -77 -64 -141 -59
-143 6 -2 32 3 58 12 61 20 217 54 291 64 98 12 574 4 752 -13 25 -3 81 -7
125 -10 78 -5 127 -9 290 -21 421 -31 542 -34 730 -21 105 8 114 9 263 33 171
28 214 51 152 81 -21 10 -269 57 -415 78 -22 4 -56 10 -75 15 -19 5 -56 12
-82 15 -26 3 -78 9 -115 15 -38 5 -95 12 -128 15 -33 3 -78 7 -100 10 -22 3
-112 7 -200 11 -88 3 -194 7 -235 9 -92 4 -486 5 -555 1 -81 -5 -189 -18 -200
-24 -14 -7 -34 -28 338 348 183 184 370 378 416 430 47 52 115 129 151 170 37
41 80 91 96 110 16 19 38 44 49 56 11 11 33 36 50 55 27 31 67 75 189 209 23
25 77 86 121 135 44 50 82 92 85 95 7 6 138 157 165 191 280 339 408 507 565
746 125 188 186 303 229 428 33 98 45 205 24 212 -7 3 -13 -1 -13 -7z"/>
<path d="M4669 1242 c-144 -112 -331 -214 -496 -272 -135 -47 -316 -120 -338
-136 -18 -13 -18 -15 -2 -32 34 -33 239 -13 400 39 32 10 102 40 155 66 79 39
112 62 175 126 83 83 167 190 167 213 0 20 -33 17 -61 -4z"/>
<path d="M4700 1032 c-8 -2 -36 -22 -62 -44 -91 -75 -270 -189 -381 -242 -100
-48 -258 -108 -319 -120 -13 -3 -47 -9 -76 -15 -30 -6 -57 -13 -60 -15 -4 -2
-29 -7 -57 -10 -27 -4 -59 -9 -70 -11 -149 -33 -536 -38 -775 -10 -19 2 -62 6
-95 10 -33 3 -71 8 -85 10 -47 7 -175 24 -220 30 -25 3 -61 7 -80 10 -211 26
-708 26 -783 0 -7 -3 -23 -7 -37 -9 -30 -6 -56 -12 -95 -22 -46 -11 -155 -63
-202 -95 -59 -41 -141 -118 -125 -119 8 0 48 9 90 19 86 22 173 37 277 46 74
7 515 7 600 0 28 -2 97 -6 155 -9 58 -4 140 -9 182 -12 43 -3 97 -7 120 -9
313 -23 956 -23 1062 0 12 2 37 7 56 9 330 47 612 185 845 413 42 40 146 159
158 180 9 14 -3 22 -23 15z"/>
<path d="M2049 1006 c-2 -2 -29 -6 -59 -9 -259 -29 -503 -139 -648 -295 -45
-49 -116 -178 -106 -194 3 -5 20 3 37 17 69 57 264 128 411 150 21 3 48 7 60
10 12 3 41 7 66 10 25 2 63 7 85 10 130 18 254 23 635 24 532 2 671 7 737 26
58 17 70 29 53 50 -25 30 -236 80 -545 129 -49 8 -110 17 -135 20 -25 3 -54 8
-65 10 -11 2 -58 7 -105 11 -47 4 -98 9 -115 11 -16 1 -88 6 -160 9 -71 4
-133 9 -136 11 -3 2 -8 2 -10 0z"/>
</g>
</svg>
